# xmcd
#
# Track frame offsets: 
#        150
#        31827
#        82415
#        111301
#        118549
#        136207
#        150593
#        175094
#        186813
#        213769
#        224982
#        294785
#
# Disc length: 4429 seconds
#
# Revision: 0
# Processed by: cddbd v1.5.1PL0 Copyright (c) Steve Scherf et al.
# Submitted via: ExactAudioCopy v0.95a5
#
DISCID=ac114b0c
DTITLE=Blues Traveler - 2000-10-21 Bay Center at the Rusty Rudder, Reh
DTITLE=oboth Beach, DE
DYEAR=2000
DGENRE=Blues
TTITLE0=12 Swords 
TTITLE1=Sweet Pain
TTITLE2=Felicia 
TTITLE3=Crash Burn > 
TTITLE4=Dropping Some NYC >
TTITLE5=Crash Burn 
TTITLE6=Canadian Rose 
TTITLE7=Run-Around > 
TTITLE8=Gina > 
TTITLE9=Run-Around 
TTITLE10=Mother Funker 
TTITLE11=No Woman, No Cry
EXTD=
EXTT0=
EXTT1=
EXTT2=
EXTT3=
EXTT4=
EXTT5=
EXTT6=
EXTT7=
EXTT8=
EXTT9=
EXTT10=
EXTT11=
PLAYORDER=
